<?xml version="1.0" encoding="utf-8"?>
<!-- Generator: Adobe Illustrator 19.0.0, SVG Export Plug-In . SVG Version: 6.00 Build 0)  -->
<svg version="1.1" xmlns="http://www.w3.org/2000/svg" xmlns:xlink="http://www.w3.org/1999/xlink" x="0px" y="0px"
	 viewBox="0 0 95 95" style="enable-background:new 0 0 95 95;" xml:space="preserve" id="svgItem">
<g id="nube1">
	<g id="XMLID_29_">
		<path id="XMLID_31_" class="st0" d="M53.5,44.6h-1.1c-0.4-1.6-1-3.4-2-5.3c-3.3-6.2-9.2-9.6-16.5-9.6c-7.4,0-13.3,3.4-16.5,9.6
			c-1,2-1.6,4-2,5.6C7.6,46.3,2.2,52.5,2.2,60.6c0,8.2,5.7,14.5,13.8,15.8c0.4,0.1,0.9,0.2,1.3,0.2h36.2c9.5,0,16.7-6.9,16.7-16
			C70.2,51.3,63.2,44.6,53.5,44.6z M53.5,68.6H18.9c-6,0-8.7-4.1-8.7-8c0-4.8,3.5-8,8.7-8c2.2,0,3.9-1.7,4-3.9
			c0-1.1,0.6-11.1,10.9-11.1c4.4,0,7.5,1.7,9.4,5.1c1.6,2.9,1.8,6,1.8,6c0.1,2.1,1.9,3.8,4,3.8h4.5c5.2,0,8.7,3.2,8.7,8
			C62.2,64.4,59.4,68.6,53.5,68.6z"/>
			<animateTransform attributeName="transform"
			     	 type="translate"
			     	 values="0,0;3,0;0,0"
			     	 dur="4s"
			     	 repeatCount="indefinite"/>
	</g>
</g>
<g id="nube2">
	<path id="XMLID_28_" class="st0" d="M69.1,23.6c4.3,0.5,7.8,2.8,9.8,6.7c0.7,1.3,1.1,2.5,1.4,3.6h0.6c6.8,0,11.8,4.8,11.8,11.3
		c0,6.5-5.1,11.3-11.8,11.3h-3.6c-1.7,0-3-1.3-3-3c0-1.7,1.3-3,3-3h3.6c4,0,5.8-2.8,5.8-5.3c0-3.2-2.3-5.3-5.8-5.3h-3.1
		c-1.6,0-2.9-1.3-3-2.9c-0.1-1.2-0.8-7.5-7.5-7.5c-6.7,0-7.3,6.2-7.4,7.5c-0.1,1.6-1.4,2.9-3,2.9c0,0-0.1,0-0.1,0
		c-1.6-0.1-2.9-1.4-2.9-3.1c0-0.3,0.1-3.4,1.7-6.5c1.6-3.2,4.2-5.3,7.5-6.3c0,0,1.7-0.4,2.8-0.5S69.1,23.6,69.1,23.6z"/>
		<animateTransform attributeName="transform"
			     	 type="translate"
			     	 values="-2,0;-8,0;-2,0"
			     	 dur="4s"
			     	 repeatCount="indefinite"/>
</g>
</svg>
