<?xml version="1.0" encoding="utf-8"?>
<!-- Generator: Adobe Illustrator 19.0.0, SVG Export Plug-In . SVG Version: 6.00 Build 0)  -->
<svg version="1.1" xmlns="http://www.w3.org/2000/svg" xmlns:xlink="http://www.w3.org/1999/xlink" x="0px" y="0px"
	 viewBox="0 0 95 95" style="enable-background:new 0 0 95 95;" xml:space="preserve" id="svgItem">
<g id="Capa_2">
	<path id="XMLID_9_" class="st0" d="M53.4,48.8h-1.1c-0.4-1.6-1-3.4-2-5.3c-3.3-6.2-9.2-9.6-16.5-9.6c-7.4,0-13.3,3.4-16.5,9.6
		c-1,2-1.6,4-2,5.6C7.5,50.5,2.1,56.7,2.1,64.8c0,8.2,5.7,14.5,13.8,15.8c0.4,0.1,0.9,0.2,1.3,0.2h36.2c9.5,0,16.7-6.9,16.7-16
		C70.1,55.5,63.1,48.8,53.4,48.8z M53.4,72.8H18.8c-6,0-8.7-4.1-8.7-8c0-4.8,3.5-8,8.7-8c2.1,0,3.9-1.7,4-3.9c0,0,0.1-3.1,1.7-6
		c1.8-3.4,4.9-5.1,9.2-5.1c4.4,0,7.5,1.7,9.4,5.1c1.6,2.9,1.8,6,1.8,6c0.1,2.1,1.9,3.8,4,3.8h4.5c5.2,0,8.7,3.2,8.7,8
		C62.1,68.7,59.4,72.8,53.4,72.8z"/>
		<animateTransform attributeName="transform"
					 attributetype="XML"
					 type="translate"
					 values="-1,0;1,0;-1,0"
					 dur="1.3s"
					 repeatCount="indefinite"/>
</g>
<g id="Capa_9">
	<path id="XMLID_4_" class="st0" d="M79.2,57.7c-1.2-1.2-3.1-1.2-4.2,0c-1.2,1.2-1.2,3.1,0,4.2l4,4c0.6,0.6,1.4,0.9,2.1,0.9
		c0.8,0,1.5-0.3,2.1-0.9c1.2-1.2,1.2-3.1,0-4.2L79.2,57.7z"/>
		<animateTransform attributeName="transform"
					 attributetype="XML"
					 type="translate"
					 values="-1,0;1,1;-1,0"
					 dur="1.3s"
					 repeatCount="indefinite"/>
</g>
<g id="Capa_8">
	<path id="XMLID_6_" class="st0" d="M89.7,40.3h-5.7c-1.7,0-3,1.3-3,3c0,1.7,1.3,3,3,3h5.7c1.7,0,3-1.3,3-3
		C92.7,41.6,91.3,40.3,89.7,40.3z"/>
		<animateTransform attributeName="transform"
					 attributetype="XML"
					 type="translate"
					 values="-1,0;1,0;-1,0"
					 dur="1.3s"
					 repeatCount="indefinite"/>
</g>
<g id="Capa_7">
	<path id="XMLID_5_" class="st0" d="M77.1,29.8c0.8,0,1.5-0.3,2.1-0.9l4-4c1.2-1.2,1.2-3.1,0-4.2c-1.2-1.2-3.1-1.2-4.2,0l-4,4
		c-1.2,1.2-1.2,3.1,0,4.2C75.6,29.5,76.3,29.8,77.1,29.8z"/>
		<animateTransform attributeName="transform"
					 attributetype="XML"
					 type="translate"
					 values="0,1;1,-1;0,1"
					 dur="1.3s"
					 repeatCount="indefinite"/>
</g>
<g id="Capa_6">
	<path id="XMLID_7_" class="st0" d="M60.6,23c1.7,0,3-1.3,3-3v-5.7c0-1.7-1.3-3-3-3c-1.7,0-3,1.3-3,3V20C57.6,21.6,59,23,60.6,23z"
		/>
		<animateTransform attributeName="transform"
					 attributetype="XML"
					 type="translate"
					 values="0,1;0,-1;0,1"
					 dur="1.3s"
					 repeatCount="indefinite"/>
</g>
<g id="Capa_5">
	<path id="XMLID_3_" class="st0" d="M42,28.9c0.6,0.6,1.4,0.9,2.1,0.9c0.8,0,1.5-0.3,2.1-0.9c1.2-1.2,1.2-3.1,0-4.2l-4-4
		c-1.2-1.2-3.1-1.2-4.2,0c-1.2,1.2-1.2,3.1,0,4.2L42,28.9z"/>
		<animateTransform attributeName="transform"
					 attributetype="XML"
					 type="translate"
					 values="1,0;-1,-1;1,0"
					 dur="1.3s"
					 repeatCount="indefinite"/>

</g>
<g id="Capa_4">
	<path id="XMLID_8_" class="st0" d="M76.2,43.3c0-8.6-7-15.6-15.6-15.6c-3.1,0-6.2,0.9-8.7,2.7c-1.4,0.9-1.7,2.8-0.8,4.2
		c0.9,1.4,2.8,1.7,4.2,0.8c1.6-1.1,3.5-1.6,5.4-1.6c5.3,0,9.6,4.3,9.6,9.6c0,1.6-0.4,3.1-1.1,4.4c-0.8,1.5-0.2,3.3,1.3,4
		c0.4,0.2,0.9,0.3,1.4,0.3c1.1,0,2.1-0.6,2.7-1.6C75.6,48.3,76.2,45.8,76.2,43.3z"/>
</g>
</svg>
