<?xml version="1.0" encoding="utf-8"?>
<!-- Generator: Adobe Illustrator 19.0.0, SVG Export Plug-In . SVG Version: 6.00 Build 0)  -->
<svg version="1.1" xmlns="http://www.w3.org/2000/svg" xmlns:xlink="http://www.w3.org/1999/xlink" x="0px" y="0px"
	 viewBox="0 0 95 95" style="enable-background:new 0 0 95 95;" xml:space="preserve" id="svgItem">
<g id="Capa_1">
	<g id="XMLID_12_">
		<path id="XMLID_10_" class="st0" d="M73.5,37.6c0-7.8-6.3-14.1-14.1-14.1c-2.8,0-5.6,0.8-7.9,2.4c-1.2,0.8-1.6,2.5-0.7,3.8
			c0.8,1.2,2.5,1.6,3.8,0.7c1.4-1,3.1-1.5,4.9-1.5c4.8,0,8.7,3.9,8.7,8.7c0,1.4-0.3,2.8-1,4c-0.7,1.3-0.2,3,1.1,3.7
			c0.4,0.2,0.8,0.3,1.2,0.3c1,0,1.9-0.5,2.4-1.5C72.9,42.1,73.5,39.9,73.5,37.6z"/>
		<path id="XMLID_1_" class="st0" d="M52.8,42.6h-1c-0.3-1.4-0.9-3.1-1.8-4.8c-3-5.6-8.3-8.7-14.9-8.7c-6.7,0-12,3.1-14.9,8.7
			c-0.9,1.8-1.5,3.6-1.8,5.1c-7,1.3-11.9,6.8-11.9,14.2c0,5.2,2.7,9.9,7.1,12.4c1.7,1,3.9,0.4,4.9-1.3c1-1.7,0.4-3.9-1.3-4.9
			c-2.2-1.2-3.5-3.5-3.5-6.2c0-4.3,3.1-7.2,7.8-7.2c2,0,3.6-1.6,3.6-3.5c0-1,0.6-10,9.9-10c4,0,6.7,1.5,8.5,4.6
			c1.4,2.6,1.6,5.4,1.6,5.4c0.1,1.9,1.7,3.4,3.6,3.4h4.1c4.7,0,7.8,2.9,7.8,7.2c0,3.5-2.5,7.2-7.8,7.2h-2c-2,0-3.6,1.6-3.6,3.6
			c0,2,1.6,3.6,3.6,3.6h2c8.6,0,15.1-6.2,15.1-14.4C67.9,48.6,61.5,42.6,52.8,42.6z"/>
			
	</g>
</g>
<g id="GOTAS">
	
	<g id="gota3">
		<path id="XMLID_4_" class="st0" d="M36.2,71.6c-0.7,0-1.4,0.3-1.8,0.9c-0.8,1.1-3.6,4.9-3.6,7.7c0,3.6,2.7,5.7,5.4,5.7
			c2.6,0,5.4-2.1,5.4-5.7c0-2.8-2.7-6.6-3.6-7.7C37.6,72,36.9,71.6,36.2,71.6z"/>
			<animate attributeName="opacity"
				   attributetype="XML"
			       values="0;1;0"
			       begin="0.2s" 
			       dur="2s"
		           repeatCount="indefinite"/>
     <animateTransform attributeName="transform"
     	 type="translate"
     	 values="0,0;0,8"
     	 begin="0.2s"
     	 dur="2s"
     	 repeatCount="indefinite"/>
	</g>
	<g id="gota2">
		<path id="XMLID_3_" class="st0" d="M29,61.2c-0.7-0.9-2.2-0.9-2.9,0c-0.6,0.8-2.7,3.8-2.7,5.9c0,2.7,2.1,4.4,4.2,4.4
			s4.2-1.6,4.2-4.4C31.7,65,29.6,62.1,29,61.2z"/>
			<animate attributeName="opacity"
				   attributetype="XML"
			       values="0;1;0" 
			       begin="0.3s"
			       dur="2s"
		           repeatCount="indefinite"/>
	 <animateTransform attributeName="transform"
     	 type="translate"
     	 values="0,0;0,8"
     	 begin="0.3s"
     	 dur="2s"
     	 repeatCount="indefinite"/>
	</g>
	<g id="gota1">
		<path id="XMLID_2_" class="st0" d="M41.7,56c-0.4,0-0.8,0.2-1.1,0.5c-0.6,0.7-2.4,3.2-2.4,5c0,2.3,1.7,3.6,3.4,3.6h0
			c1.7,0,3.4-1.4,3.4-3.6C45.2,60.4,43.2,56,41.7,56z"/>
			<animate attributeName="opacity"
				   attributetype="XML"
			       values="0;1;0" 
			       begin="0.4s"
			       dur="2s"
		           repeatCount="indefinite"/>
     <animateTransform attributeName="transform"
     	 type="translate"
     	 values="0,0;0,8"
     	 begin="0.4s"
     	 dur="2s"
     	 repeatCount="indefinite"/>
	</g>
</g>
<g id="rayo5">
	<path id="XMLID_6_" class="st0" d="M76.2,50.6c-1.1-1.1-2.8-1.1-3.8,0c-1.1,1.1-1.1,2.8,0,3.8l3.6,3.6c0.5,0.5,1.2,0.8,1.9,0.8
		c0.7,0,1.4-0.3,1.9-0.8c1.1-1.1,1.1-2.8,0-3.8L76.2,50.6z"/>
		<animateTransform attributeName="transform"
					 attributetype="XML"
					 type="translate"
					 values="-1,0;1,1;-1,0"
					 dur="1.3s"
					 repeatCount="indefinite"/>
</g>
<g id="rayo4">
	<path id="XMLID_8_" class="st0" d="M85.6,34.9h-5.2c-1.5,0-2.7,1.2-2.7,2.7s1.2,2.7,2.7,2.7h5.2c1.5,0,2.7-1.2,2.7-2.7
		S87.1,34.9,85.6,34.9z"/>
		<animateTransform attributeName="transform"
					 attributetype="XML"
					 type="translate"
					 values="-1,0;1,0;-1,0"
					 dur="1.3s"
					 repeatCount="indefinite"/>
</g>
<g id="rayo3">
	<path id="XMLID_7_" class="st0" d="M74.3,25.4c0.7,0,1.4-0.3,1.9-0.8l3.6-3.6c1.1-1.1,1.1-2.8,0-3.8c-1.1-1.1-2.8-1.1-3.8,0
		l-3.6,3.6c-1.1,1.1-1.1,2.8,0,3.8C72.9,25.1,73.6,25.4,74.3,25.4z"/>
		<animateTransform attributeName="transform"
					 attributetype="XML"
					 type="translate"
					 values="0,1;1,-1;0,1"
					 dur="1.3s"
					 repeatCount="indefinite"/>
</g>
<g id="rayo2">
	<path id="XMLID_9_" class="st0" d="M59.4,19.2c1.5,0,2.7-1.2,2.7-2.7v-5.2c0-1.5-1.2-2.7-2.7-2.7c-1.5,0-2.7,1.2-2.7,2.7v5.2
		C56.7,18,57.9,19.2,59.4,19.2z"/>
		<animateTransform attributeName="transform"
					 attributetype="XML"
					 type="translate"
					 values="0,1;0,-1;0,1"
					 dur="1.3s"
					 repeatCount="indefinite"/>
</g>
<g id="rayo1">
	<path id="XMLID_5_" class="st0" d="M42.6,24.6c0.5,0.5,1.2,0.8,1.9,0.8c0.7,0,1.4-0.3,1.9-0.8c1.1-1.1,1.1-2.8,0-3.8l-3.6-3.6
		c-1.1-1.1-2.8-1.1-3.8,0c-1.1,1.1-1.1,2.8,0,3.8L42.6,24.6z"/>
		<animateTransform attributeName="transform"
					 attributetype="XML"
					 type="translate"
					 values="1,0;-1,-1;1,0"
					 dur="1.3s"
					 repeatCount="indefinite"/>
</g>
</svg>
