<?xml version="1.0" encoding="utf-8"?>
<!-- Generator: Adobe Illustrator 19.0.0, SVG Export Plug-In . SVG Version: 6.00 Build 0)  -->
<svg version="1.1" xmlns="http://www.w3.org/2000/svg" xmlns:xlink="http://www.w3.org/1999/xlink" x="0px" y="0px"
	 viewBox="0 0 95 95" style="enable-background:new 0 0 95 95;" xml:space="preserve" id="svgItem">
<g id="todo">
	 <animateTransform attributeName="transform"
            type="rotate"
            from="0 47.5 47.5"
            to="360 47.5 47.5"
            begin="0s"
            dur="15s"
            repeatCount="indefinite"
        />
	<g id="h">
		<g>
			<path id="XMLID_27_" class="st0" d="M22.7,27.8c0.7,0.7,1.7,1.1,2.7,1.1c1,0,1.9-0.4,2.7-1.1c1.5-1.5,1.5-3.9,0-5.4L22.6,17
				c-1.5-1.5-3.9-1.5-5.4,0c-1.5,1.5-1.5,3.9,0,5.4L22.7,27.8z"/>
				<animateTransform attributeName="transform"
					 attributetype="XML"
					 type="translate"
					 values="1,0;-2,-2;1,0"
					 dur="1.3s"
					 repeatCount="indefinite"/>
		</g>
	</g>
	<g id="g">
		<path id="XMLID_31_" class="st0" d="M20,47.5c0-2.1-1.7-3.8-3.8-3.8H8.4c-2.1,0-3.8,1.7-3.8,3.8c0,2.1,1.7,3.8,3.8,3.8h7.8
			C18.3,51.3,20,49.6,20,47.5z"/>
			<animateTransform attributeName="transform"
					 attributetype="XML"
					 type="translate"
					 values="1,0;-2,0;1,0"
					 dur="1.3s"
					 repeatCount="indefinite"/>
	</g>
	<g id="f">
		<path id="XMLID_28_" class="st0" d="M22.7,67.2l-5.5,5.5c-1.5,1.5-1.5,3.9,0,5.4c0.7,0.7,1.7,1.1,2.7,1.1s1.9-0.4,2.7-1.1l5.5-5.5
			c1.5-1.5,1.5-3.9,0-5.4C26.6,65.7,24.2,65.7,22.7,67.2z"/>
			<animateTransform attributeName="transform"
					 attributetype="XML"
					 type="translate"
					 values="1,0;-2,2;1,0"
					 dur="1.3s"
					 repeatCount="indefinite"/>
	</g>
	<g id="e">
		<path id="XMLID_32_" class="st0" d="M47.8,75.4c-2.1,0-3.8,1.7-3.8,3.8v7.8c0,2.1,1.7,3.8,3.8,3.8c2.1,0,3.8-1.7,3.8-3.8v-7.8
			C51.6,77.1,49.9,75.4,47.8,75.4z"/>
		<path id="XMLID_37_" class="st0" d="M47.8,75.4c-2.1,0-3.8,1.7-3.8,3.8v7.8c0,2.1,1.7,3.8,3.8,3.8c2.1,0,3.8-1.7,3.8-3.8v-7.8
			C51.6,77.1,49.9,75.4,47.8,75.4z"/>
			<animateTransform attributeName="transform"
					 attributetype="XML"
					 type="translate"
					 values="0,-1;0,2;0,-1"
					 dur="1.3s"
					 repeatCount="indefinite"/>
	</g>
	<g id="d">
		<path id="XMLID_29_" class="st0" d="M72.9,67.2c-1.5-1.5-3.9-1.5-5.4,0c-1.5,1.5-1.5,3.9,0,5.4l5.5,5.5c0.7,0.7,1.7,1.1,2.7,1.1
			c1,0,1.9-0.4,2.7-1.1c1.5-1.5,1.5-3.9,0-5.4L72.9,67.2z"/>
			<animateTransform attributeName="transform"
					 attributetype="XML"
					 type="translate"
					 values="-1,0;2,2;-1,0"
					 dur="1.3s"
					 repeatCount="indefinite"/>
	</g>
	<g id="c">
		<path id="XMLID_33_" class="st0" d="M87.2,43.7h-7.8c-2.1,0-3.8,1.7-3.8,3.8c0,2.1,1.7,3.8,3.8,3.8h7.8c2.1,0,3.8-1.7,3.8-3.8
			C91,45.4,89.3,43.7,87.2,43.7z"/>
			<animateTransform attributeName="transform"
					 attributetype="XML"
					 type="translate"
					 values="-1,0;2,0;-1,0"
					 dur="1.3s"
					 repeatCount="indefinite"/>
	</g>
	<g id="b">
		<path id="XMLID_30_" class="st0" d="M70.2,29c1,0,1.9-0.4,2.7-1.1l5.5-5.5c1.5-1.5,1.5-3.9,0-5.4c-1.5-1.5-3.9-1.5-5.4,0l-5.5,5.5
			c-1.5,1.5-1.5,3.9,0,5.4C68.2,28.6,69.2,29,70.2,29z"/>
			<animateTransform attributeName="transform"
					 attributetype="XML"
					 type="translate"
					 values="0,1;2,-2;0,1"
					 dur="1.3s"
					 repeatCount="indefinite"/>
	</g>
	<g id="a">
		<path id="XMLID_34_" class="st0" d="M47.8,19.7c2.1,0,3.8-1.7,3.8-3.8V8.1c0-2.1-1.7-3.8-3.8-3.8C45.7,4.3,44,6,44,8.1v7.8
			C44,18,45.7,19.7,47.8,19.7z"/>
			<animateTransform attributeName="transform"
					 attributetype="XML"
					 type="translate"
					 values="0,1;0,-2;0,1"
					 dur="1.3s"
					 repeatCount="indefinite"/>
	</g>
	<g id="circulo">
		<path id="XMLID_38_" class="st0" d="M47.8,26.6c-11.5,0-20.9,9.4-20.9,20.9c0,11.5,9.4,20.9,20.9,20.9c11.5,0,20.9-9.4,20.9-20.9
			C68.7,36,59.3,26.6,47.8,26.6z M47.8,60.8c-7.3,0-13.3-6-13.3-13.3c0-7.3,6-13.3,13.3-13.3c7.3,0,13.3,6,13.3,13.3
			C61.1,54.9,55.1,60.8,47.8,60.8z"/>
	</g>
</g>
</svg>
